<mxfile host="app.diagrams.net" modified="2024-02-07T09:25:12.535Z" agent="Mozilla/5.0 (Windows NT 10.0; Win64; x64) AppleWebKit/537.36 (KHTML, like Gecko) Chrome/120.0.0.0 Safari/537.36 OPR/106.0.0.0" etag="473tbCqjB1i9ilrsoqKH" version="23.1.1" type="github">
  <diagram name="Seite-1" id="9fy-oJtNh5ueOBFY-xOZ">
    <mxGraphModel dx="1076" dy="617" grid="1" gridSize="10" guides="1" tooltips="1" connect="1" arrows="1" fold="1" page="1" pageScale="1" pageWidth="827" pageHeight="1169" math="0" shadow="0">
      <root>
        <mxCell id="0" />
        <mxCell id="1" parent="0" />
        <mxCell id="ozhPWf2TO138vazG7j-N-81" value="" style="whiteSpace=wrap;html=1;aspect=fixed;" parent="1" vertex="1">
          <mxGeometry x="98" y="90" width="710" height="710" as="geometry" />
        </mxCell>
        <mxCell id="ozhPWf2TO138vazG7j-N-2" value="Kunde" style="shape=umlActor;verticalLabelPosition=bottom;verticalAlign=top;html=1;outlineConnect=0;" parent="1" vertex="1">
          <mxGeometry x="19" y="340" width="30" height="60" as="geometry" />
        </mxCell>
        <mxCell id="ozhPWf2TO138vazG7j-N-3" value="Mitarbeiter" style="shape=umlActor;verticalLabelPosition=bottom;verticalAlign=top;html=1;outlineConnect=0;" parent="1" vertex="1">
          <mxGeometry x="19" y="650" width="30" height="60" as="geometry" />
        </mxCell>
        <mxCell id="ozhPWf2TO138vazG7j-N-6" value="Einzahlen" style="ellipse;whiteSpace=wrap;html=1;" parent="1" vertex="1">
          <mxGeometry x="129" y="100" width="80" height="40" as="geometry" />
        </mxCell>
        <mxCell id="ozhPWf2TO138vazG7j-N-7" value="Abheben" style="ellipse;whiteSpace=wrap;html=1;" parent="1" vertex="1">
          <mxGeometry x="129" y="160" width="80" height="40" as="geometry" />
        </mxCell>
        <mxCell id="ozhPWf2TO138vazG7j-N-8" value="Authentifizierung Kunde" style="ellipse;whiteSpace=wrap;html=1;" parent="1" vertex="1">
          <mxGeometry x="519" y="170" width="140" height="50" as="geometry" />
        </mxCell>
        <mxCell id="ozhPWf2TO138vazG7j-N-9" value="Kontostand abrufen" style="ellipse;whiteSpace=wrap;html=1;" parent="1" vertex="1">
          <mxGeometry x="129" y="430" width="110" height="50" as="geometry" />
        </mxCell>
        <mxCell id="ozhPWf2TO138vazG7j-N-10" value="Überweisung durchführen" style="ellipse;whiteSpace=wrap;html=1;" parent="1" vertex="1">
          <mxGeometry x="129" y="220" width="120" height="60" as="geometry" />
        </mxCell>
        <mxCell id="ozhPWf2TO138vazG7j-N-11" value="Konto eröffnen" style="ellipse;whiteSpace=wrap;html=1;" parent="1" vertex="1">
          <mxGeometry x="134" y="300" width="100" height="40" as="geometry" />
        </mxCell>
        <mxCell id="ozhPWf2TO138vazG7j-N-12" value="Konto schließen" style="ellipse;whiteSpace=wrap;html=1;" parent="1" vertex="1">
          <mxGeometry x="134" y="365" width="100" height="35" as="geometry" />
        </mxCell>
        <mxCell id="ozhPWf2TO138vazG7j-N-13" value="Authentifizierung Mitarbeiter" style="ellipse;whiteSpace=wrap;html=1;" parent="1" vertex="1">
          <mxGeometry x="614" y="660" width="170" height="40" as="geometry" />
        </mxCell>
        <mxCell id="ozhPWf2TO138vazG7j-N-19" value="" style="endArrow=none;html=1;rounded=0;exitX=0.5;exitY=0.5;exitDx=0;exitDy=0;exitPerimeter=0;entryX=0;entryY=0.5;entryDx=0;entryDy=0;" parent="1" source="ozhPWf2TO138vazG7j-N-2" target="ozhPWf2TO138vazG7j-N-6" edge="1">
          <mxGeometry width="50" height="50" relative="1" as="geometry">
            <mxPoint x="309" y="450" as="sourcePoint" />
            <mxPoint x="359" y="400" as="targetPoint" />
          </mxGeometry>
        </mxCell>
        <mxCell id="ozhPWf2TO138vazG7j-N-20" value="" style="endArrow=none;html=1;rounded=0;exitX=0.5;exitY=0.5;exitDx=0;exitDy=0;exitPerimeter=0;entryX=0;entryY=0.5;entryDx=0;entryDy=0;" parent="1" source="ozhPWf2TO138vazG7j-N-2" target="ozhPWf2TO138vazG7j-N-7" edge="1">
          <mxGeometry width="50" height="50" relative="1" as="geometry">
            <mxPoint x="309" y="450" as="sourcePoint" />
            <mxPoint x="359" y="400" as="targetPoint" />
          </mxGeometry>
        </mxCell>
        <mxCell id="ozhPWf2TO138vazG7j-N-21" value="" style="endArrow=none;html=1;rounded=0;exitX=0.5;exitY=0.5;exitDx=0;exitDy=0;exitPerimeter=0;entryX=0;entryY=0.5;entryDx=0;entryDy=0;" parent="1" source="ozhPWf2TO138vazG7j-N-2" target="ozhPWf2TO138vazG7j-N-10" edge="1">
          <mxGeometry width="50" height="50" relative="1" as="geometry">
            <mxPoint x="309" y="450" as="sourcePoint" />
            <mxPoint x="359" y="400" as="targetPoint" />
          </mxGeometry>
        </mxCell>
        <mxCell id="ozhPWf2TO138vazG7j-N-24" value="" style="endArrow=none;html=1;rounded=0;exitX=0.5;exitY=0.5;exitDx=0;exitDy=0;exitPerimeter=0;entryX=0;entryY=0.5;entryDx=0;entryDy=0;" parent="1" source="ozhPWf2TO138vazG7j-N-2" target="ozhPWf2TO138vazG7j-N-9" edge="1">
          <mxGeometry width="50" height="50" relative="1" as="geometry">
            <mxPoint x="309" y="450" as="sourcePoint" />
            <mxPoint x="359" y="400" as="targetPoint" />
          </mxGeometry>
        </mxCell>
        <mxCell id="ozhPWf2TO138vazG7j-N-25" value="Konto Öffnung genehmigen" style="ellipse;whiteSpace=wrap;html=1;" parent="1" vertex="1">
          <mxGeometry x="139" y="680" width="140" height="50" as="geometry" />
        </mxCell>
        <mxCell id="ozhPWf2TO138vazG7j-N-26" value="Konto Eröffnung beantragen" style="ellipse;whiteSpace=wrap;html=1;" parent="1" vertex="1">
          <mxGeometry x="490" y="295" width="140" height="50" as="geometry" />
        </mxCell>
        <mxCell id="ozhPWf2TO138vazG7j-N-27" value="Konto Schließung beantragen" style="ellipse;whiteSpace=wrap;html=1;" parent="1" vertex="1">
          <mxGeometry x="590" y="355" width="130" height="55" as="geometry" />
        </mxCell>
        <mxCell id="ozhPWf2TO138vazG7j-N-28" value="" style="endArrow=none;html=1;rounded=0;exitX=0.5;exitY=0.5;exitDx=0;exitDy=0;exitPerimeter=0;entryX=0;entryY=0.5;entryDx=0;entryDy=0;" parent="1" source="ozhPWf2TO138vazG7j-N-2" target="ozhPWf2TO138vazG7j-N-11" edge="1">
          <mxGeometry width="50" height="50" relative="1" as="geometry">
            <mxPoint x="309" y="450" as="sourcePoint" />
            <mxPoint x="110" y="330" as="targetPoint" />
          </mxGeometry>
        </mxCell>
        <mxCell id="ozhPWf2TO138vazG7j-N-32" value="" style="endArrow=open;dashed=1;html=1;dashPattern=1 3;strokeWidth=2;rounded=0;entryX=0;entryY=0.5;entryDx=0;entryDy=0;exitX=1;exitY=0.5;exitDx=0;exitDy=0;endFill=0;" parent="1" source="ozhPWf2TO138vazG7j-N-25" target="ozhPWf2TO138vazG7j-N-13" edge="1">
          <mxGeometry width="50" height="50" relative="1" as="geometry">
            <mxPoint x="309" y="440" as="sourcePoint" />
            <mxPoint x="359" y="390" as="targetPoint" />
          </mxGeometry>
        </mxCell>
        <mxCell id="ozhPWf2TO138vazG7j-N-33" value="" style="endArrow=open;dashed=1;html=1;dashPattern=1 3;strokeWidth=2;rounded=0;entryX=0.036;entryY=0.707;entryDx=0;entryDy=0;endFill=0;entryPerimeter=0;exitX=1;exitY=0.5;exitDx=0;exitDy=0;" parent="1" source="ozhPWf2TO138vazG7j-N-11" target="ozhPWf2TO138vazG7j-N-8" edge="1">
          <mxGeometry width="50" height="50" relative="1" as="geometry">
            <mxPoint x="290" y="310" as="sourcePoint" />
            <mxPoint x="359" y="400" as="targetPoint" />
          </mxGeometry>
        </mxCell>
        <mxCell id="ozhPWf2TO138vazG7j-N-42" value="" style="endArrow=open;dashed=1;html=1;dashPattern=1 3;strokeWidth=2;rounded=0;entryX=0.5;entryY=0;entryDx=0;entryDy=0;exitX=1;exitY=0.5;exitDx=0;exitDy=0;endFill=0;" parent="1" source="ozhPWf2TO138vazG7j-N-6" target="ozhPWf2TO138vazG7j-N-8" edge="1">
          <mxGeometry width="50" height="50" relative="1" as="geometry">
            <mxPoint x="309" y="450" as="sourcePoint" />
            <mxPoint x="359" y="400" as="targetPoint" />
          </mxGeometry>
        </mxCell>
        <mxCell id="ozhPWf2TO138vazG7j-N-43" value="" style="endArrow=open;dashed=1;html=1;dashPattern=1 3;strokeWidth=2;rounded=0;entryX=0;entryY=0;entryDx=0;entryDy=0;exitX=1;exitY=0.5;exitDx=0;exitDy=0;endFill=0;" parent="1" source="ozhPWf2TO138vazG7j-N-7" target="ozhPWf2TO138vazG7j-N-8" edge="1">
          <mxGeometry width="50" height="50" relative="1" as="geometry">
            <mxPoint x="309" y="450" as="sourcePoint" />
            <mxPoint x="359" y="400" as="targetPoint" />
          </mxGeometry>
        </mxCell>
        <mxCell id="ozhPWf2TO138vazG7j-N-44" value="" style="endArrow=open;dashed=1;html=1;dashPattern=1 3;strokeWidth=2;rounded=0;exitX=1;exitY=0.5;exitDx=0;exitDy=0;endFill=0;entryX=0.026;entryY=0.333;entryDx=0;entryDy=0;entryPerimeter=0;" parent="1" source="ozhPWf2TO138vazG7j-N-10" target="ozhPWf2TO138vazG7j-N-8" edge="1">
          <mxGeometry width="50" height="50" relative="1" as="geometry">
            <mxPoint x="309" y="450" as="sourcePoint" />
            <mxPoint x="519" y="200" as="targetPoint" />
            <Array as="points">
              <mxPoint x="399" y="220" />
            </Array>
          </mxGeometry>
        </mxCell>
        <mxCell id="ozhPWf2TO138vazG7j-N-45" value="" style="endArrow=open;dashed=1;html=1;dashPattern=1 3;strokeWidth=2;rounded=0;entryX=0.5;entryY=1;entryDx=0;entryDy=0;exitX=1;exitY=0.5;exitDx=0;exitDy=0;endFill=0;" parent="1" source="ozhPWf2TO138vazG7j-N-9" target="ozhPWf2TO138vazG7j-N-8" edge="1">
          <mxGeometry width="50" height="50" relative="1" as="geometry">
            <mxPoint x="309" y="450" as="sourcePoint" />
            <mxPoint x="359" y="400" as="targetPoint" />
          </mxGeometry>
        </mxCell>
        <mxCell id="ozhPWf2TO138vazG7j-N-49" value="&amp;lt;&amp;lt;include&amp;gt;&amp;gt;" style="text;html=1;align=center;verticalAlign=middle;resizable=0;points=[];autosize=1;strokeColor=none;fillColor=none;" parent="1" vertex="1">
          <mxGeometry x="199" y="90" width="90" height="30" as="geometry" />
        </mxCell>
        <mxCell id="ozhPWf2TO138vazG7j-N-60" value="" style="endArrow=none;html=1;rounded=0;exitX=0.5;exitY=0.5;exitDx=0;exitDy=0;exitPerimeter=0;entryX=0;entryY=0.5;entryDx=0;entryDy=0;" parent="1" source="ozhPWf2TO138vazG7j-N-3" target="ozhPWf2TO138vazG7j-N-25" edge="1">
          <mxGeometry width="50" height="50" relative="1" as="geometry">
            <mxPoint x="309" y="440" as="sourcePoint" />
            <mxPoint x="359" y="390" as="targetPoint" />
          </mxGeometry>
        </mxCell>
        <mxCell id="ozhPWf2TO138vazG7j-N-67" value="Konto Schließung genehmigen&amp;nbsp;" style="ellipse;whiteSpace=wrap;html=1;" parent="1" vertex="1">
          <mxGeometry x="139" y="600" width="120" height="50" as="geometry" />
        </mxCell>
        <mxCell id="ozhPWf2TO138vazG7j-N-68" value="" style="endArrow=open;dashed=1;html=1;dashPattern=1 3;strokeWidth=2;rounded=0;exitX=1;exitY=0.5;exitDx=0;exitDy=0;endFill=0;entryX=0;entryY=0;entryDx=0;entryDy=0;" parent="1" source="ozhPWf2TO138vazG7j-N-67" target="ozhPWf2TO138vazG7j-N-13" edge="1">
          <mxGeometry width="50" height="50" relative="1" as="geometry">
            <mxPoint x="309" y="590" as="sourcePoint" />
            <mxPoint x="619" y="680" as="targetPoint" />
          </mxGeometry>
        </mxCell>
        <mxCell id="ozhPWf2TO138vazG7j-N-71" value="" style="endArrow=none;html=1;rounded=0;exitX=0.5;exitY=0.5;exitDx=0;exitDy=0;exitPerimeter=0;entryX=0;entryY=0.5;entryDx=0;entryDy=0;" parent="1" source="ozhPWf2TO138vazG7j-N-3" target="ozhPWf2TO138vazG7j-N-67" edge="1">
          <mxGeometry width="50" height="50" relative="1" as="geometry">
            <mxPoint x="309" y="590" as="sourcePoint" />
            <mxPoint x="359" y="540" as="targetPoint" />
          </mxGeometry>
        </mxCell>
        <mxCell id="ozhPWf2TO138vazG7j-N-74" value="&amp;lt;&amp;lt;include&amp;gt;&amp;gt;" style="text;html=1;align=center;verticalAlign=middle;resizable=0;points=[];autosize=1;strokeColor=none;fillColor=none;" parent="1" vertex="1">
          <mxGeometry x="209" y="150" width="90" height="30" as="geometry" />
        </mxCell>
        <mxCell id="ozhPWf2TO138vazG7j-N-75" value="&amp;lt;&amp;lt;include&amp;gt;&amp;gt;" style="text;html=1;align=center;verticalAlign=middle;resizable=0;points=[];autosize=1;strokeColor=none;fillColor=none;" parent="1" vertex="1">
          <mxGeometry x="239" y="210" width="90" height="30" as="geometry" />
        </mxCell>
        <mxCell id="ozhPWf2TO138vazG7j-N-76" value="&amp;lt;&amp;lt;include&amp;gt;&amp;gt;" style="text;html=1;align=center;verticalAlign=middle;resizable=0;points=[];autosize=1;strokeColor=none;fillColor=none;" parent="1" vertex="1">
          <mxGeometry x="239" y="275" width="90" height="30" as="geometry" />
        </mxCell>
        <mxCell id="ozhPWf2TO138vazG7j-N-77" value="&amp;lt;&amp;lt;include&amp;gt;&amp;gt;" style="text;html=1;align=center;verticalAlign=middle;resizable=0;points=[];autosize=1;strokeColor=none;fillColor=none;" parent="1" vertex="1">
          <mxGeometry x="219" y="347.5" width="90" height="30" as="geometry" />
        </mxCell>
        <mxCell id="ozhPWf2TO138vazG7j-N-78" value="&amp;lt;&amp;lt;include&amp;gt;&amp;gt;" style="text;html=1;align=center;verticalAlign=middle;resizable=0;points=[];autosize=1;strokeColor=none;fillColor=none;" parent="1" vertex="1">
          <mxGeometry x="239" y="440" width="90" height="30" as="geometry" />
        </mxCell>
        <mxCell id="ozhPWf2TO138vazG7j-N-79" value="&amp;lt;&amp;lt;include&amp;gt;&amp;gt;" style="text;html=1;align=center;verticalAlign=middle;resizable=0;points=[];autosize=1;strokeColor=none;fillColor=none;" parent="1" vertex="1">
          <mxGeometry x="259" y="600" width="90" height="30" as="geometry" />
        </mxCell>
        <mxCell id="ozhPWf2TO138vazG7j-N-80" value="&amp;lt;&amp;lt;include&amp;gt;&amp;gt;" style="text;html=1;align=center;verticalAlign=middle;resizable=0;points=[];autosize=1;strokeColor=none;fillColor=none;" parent="1" vertex="1">
          <mxGeometry x="269" y="670" width="90" height="30" as="geometry" />
        </mxCell>
        <mxCell id="ozhPWf2TO138vazG7j-N-82" value="GuteLauneGeldhaus" style="text;html=1;align=center;verticalAlign=middle;resizable=0;points=[];autosize=1;strokeColor=none;fillColor=none;" parent="1" vertex="1">
          <mxGeometry x="98" y="60" width="130" height="30" as="geometry" />
        </mxCell>
        <mxCell id="t_Bqqkv1M1sZwfWbjFdG-1" value="von Niklas S., Cornelius M., Florian D., Jonas W." style="text;html=1;align=center;verticalAlign=middle;resizable=0;points=[];autosize=1;strokeColor=none;fillColor=none;" vertex="1" parent="1">
          <mxGeometry x="9" y="840" width="280" height="30" as="geometry" />
        </mxCell>
        <mxCell id="t_Bqqkv1M1sZwfWbjFdG-2" value="" style="endArrow=open;dashed=1;html=1;dashPattern=1 3;strokeWidth=2;rounded=0;entryX=0;entryY=1;entryDx=0;entryDy=0;exitX=1;exitY=0.5;exitDx=0;exitDy=0;endFill=0;" edge="1" parent="1" source="ozhPWf2TO138vazG7j-N-12" target="ozhPWf2TO138vazG7j-N-8">
          <mxGeometry width="50" height="50" relative="1" as="geometry">
            <mxPoint x="470" y="500" as="sourcePoint" />
            <mxPoint x="520" y="450" as="targetPoint" />
          </mxGeometry>
        </mxCell>
        <mxCell id="t_Bqqkv1M1sZwfWbjFdG-3" value="" style="endArrow=open;dashed=1;html=1;dashPattern=1 3;strokeWidth=2;rounded=0;exitX=1;exitY=0.5;exitDx=0;exitDy=0;entryX=0;entryY=0.5;entryDx=0;entryDy=0;endFill=0;" edge="1" parent="1" source="ozhPWf2TO138vazG7j-N-11" target="ozhPWf2TO138vazG7j-N-26">
          <mxGeometry width="50" height="50" relative="1" as="geometry">
            <mxPoint x="470" y="500" as="sourcePoint" />
            <mxPoint x="520" y="450" as="targetPoint" />
          </mxGeometry>
        </mxCell>
        <mxCell id="t_Bqqkv1M1sZwfWbjFdG-4" value="" style="endArrow=open;dashed=1;html=1;dashPattern=1 3;strokeWidth=2;rounded=0;exitX=1;exitY=0.5;exitDx=0;exitDy=0;entryX=0;entryY=0.5;entryDx=0;entryDy=0;endFill=0;" edge="1" parent="1" source="ozhPWf2TO138vazG7j-N-12" target="ozhPWf2TO138vazG7j-N-27">
          <mxGeometry width="50" height="50" relative="1" as="geometry">
            <mxPoint x="470" y="500" as="sourcePoint" />
            <mxPoint x="520" y="450" as="targetPoint" />
          </mxGeometry>
        </mxCell>
        <mxCell id="t_Bqqkv1M1sZwfWbjFdG-5" value="" style="endArrow=none;dashed=1;html=1;dashPattern=1 3;strokeWidth=2;rounded=0;entryX=0.5;entryY=1;entryDx=0;entryDy=0;exitX=1;exitY=0;exitDx=0;exitDy=0;startArrow=open;startFill=0;" edge="1" parent="1" source="ozhPWf2TO138vazG7j-N-25" target="ozhPWf2TO138vazG7j-N-26">
          <mxGeometry width="50" height="50" relative="1" as="geometry">
            <mxPoint x="470" y="500" as="sourcePoint" />
            <mxPoint x="520" y="450" as="targetPoint" />
          </mxGeometry>
        </mxCell>
        <mxCell id="t_Bqqkv1M1sZwfWbjFdG-6" value="" style="endArrow=none;dashed=1;html=1;dashPattern=1 3;strokeWidth=2;rounded=0;entryX=0;entryY=1;entryDx=0;entryDy=0;exitX=1;exitY=0;exitDx=0;exitDy=0;startArrow=open;startFill=0;" edge="1" parent="1" source="ozhPWf2TO138vazG7j-N-67" target="ozhPWf2TO138vazG7j-N-27">
          <mxGeometry width="50" height="50" relative="1" as="geometry">
            <mxPoint x="470" y="500" as="sourcePoint" />
            <mxPoint x="520" y="450" as="targetPoint" />
          </mxGeometry>
        </mxCell>
        <mxCell id="t_Bqqkv1M1sZwfWbjFdG-7" value="&amp;lt;&amp;lt;include&amp;gt;&amp;gt;" style="text;html=1;align=center;verticalAlign=middle;resizable=0;points=[];autosize=1;strokeColor=none;fillColor=none;" vertex="1" parent="1">
          <mxGeometry x="408" y="355" width="90" height="30" as="geometry" />
        </mxCell>
        <mxCell id="t_Bqqkv1M1sZwfWbjFdG-8" value="&amp;lt;&amp;lt;include&amp;gt;&amp;gt;" style="text;html=1;align=center;verticalAlign=middle;resizable=0;points=[];autosize=1;strokeColor=none;fillColor=none;" vertex="1" parent="1">
          <mxGeometry x="380" y="295" width="90" height="30" as="geometry" />
        </mxCell>
        <mxCell id="t_Bqqkv1M1sZwfWbjFdG-9" value="&amp;lt;&amp;lt;include&amp;gt;&amp;gt;" style="text;html=1;align=center;verticalAlign=middle;resizable=0;points=[];autosize=1;strokeColor=none;fillColor=none;rotation=-55;" vertex="1" parent="1">
          <mxGeometry x="390" y="440" width="90" height="30" as="geometry" />
        </mxCell>
        <mxCell id="t_Bqqkv1M1sZwfWbjFdG-10" value="&amp;lt;&amp;lt;include&amp;gt;&amp;gt;" style="text;html=1;align=center;verticalAlign=middle;resizable=0;points=[];autosize=1;strokeColor=none;fillColor=none;rotation=-30;" vertex="1" parent="1">
          <mxGeometry x="269" y="530" width="90" height="30" as="geometry" />
        </mxCell>
      </root>
    </mxGraphModel>
  </diagram>
</mxfile>
